<mxfile host="app.diagrams.net" modified="2024-03-03T01:18:56.481Z" agent="Mozilla/5.0 (Macintosh; Intel Mac OS X 10_15_7) AppleWebKit/537.36 (KHTML, like Gecko) Chrome/122.0.0.0 Safari/537.36 Edg/122.0.0.0" version="23.1.5" etag="rdiyiuBt2P5crPgH13Bg" type="github">
  <diagram name="Page-1" id="-3DkUOPjRYjAdco5A11w">
    <mxGraphModel>
      <root>
        <mxCell id="0" />
        <mxCell id="1" parent="0" />
      </root>
    </mxGraphModel>
  </diagram>
</mxfile>
